<svg width="1200" height="630" xmlns="http://www.w3.org/2000/svg">
  <defs>
    <linearGradient id="bgGradient" x1="0%" y1="0%" x2="100%" y2="100%">
      <stop offset="0%" style="stop-color:#0A0E27;stop-opacity:1" />
      <stop offset="100%" style="stop-color:#1a1f3a;stop-opacity:1" />
    </linearGradient>
  </defs>
  
  <!-- Background -->
  <rect width="1200" height="630" fill="url(#bgGradient)"/>
  
  <!-- Stars -->
  <circle cx="100" cy="80" r="2" fill="white" opacity="0.8"/>
  <circle cx="200" cy="120" r="1.5" fill="white" opacity="0.6"/>
  <circle cx="350" cy="60" r="2" fill="white" opacity="0.9"/>
  <circle cx="500" cy="100" r="1" fill="white" opacity="0.7"/>
  <circle cx="700" cy="90" r="2" fill="white" opacity="0.8"/>
  <circle cx="900" cy="70" r="1.5" fill="white" opacity="0.6"/>
  <circle cx="1050" cy="110" r="2" fill="white" opacity="0.9"/>
  <circle cx="150" cy="500" r="1.5" fill="white" opacity="0.7"/>
  <circle cx="400" cy="520" r="2" fill="white" opacity="0.8"/>
  <circle cx="800" cy="550" r="1" fill="white" opacity="0.6"/>
  <circle cx="1100" cy="480" r="2" fill="white" opacity="0.9"/>
  
  <!-- Grass Block -->
  <rect x="450" y="200" width="120" height="120" fill="#6EAF3D" stroke="#4A7C2C" stroke-width="4"/>
  <rect x="455" y="205" width="110" height="60" fill="#6EAF3D" opacity="0.3"/>
  
  <!-- Title -->
  <text x="600" y="380" font-family="Arial, sans-serif" font-size="80" font-weight="bold" fill="#FFD700" text-anchor="middle">
    SurdCraft.eu
  </text>
  
  <!-- Subtitle -->
  <text x="600" y="450" font-family="Arial, sans-serif" font-size="36" fill="white" text-anchor="middle">
    Minecraft Szerver
  </text>
  
  <!-- Server IP -->
  <rect x="420" y="490" width="360" height="60" rx="30" fill="rgba(110, 175, 61, 0.3)" stroke="#6EAF3D" stroke-width="3"/>
  <text x="600" y="532" font-family="Courier New, monospace" font-size="28" font-weight="bold" fill="#6EAF3D" text-anchor="middle">
    surdcraft.eu
  </text>
</svg>
